<?xml version="1.0" encoding="utf-8"?>
<!-- Generator: Adobe Illustrator 22.1.0, SVG Export Plug-In . SVG Version: 6.00 Build 0)  -->
<svg version="1.1" id="Layer_1" xmlns="http://www.w3.org/2000/svg" xmlns:xlink="http://www.w3.org/1999/xlink" x="0px" y="0px"
	 viewBox="0 0 512 512" style="enable-background:new 0 0 512 512;" xml:space="preserve" fill="#F4F4F5">
<g>
	<path d="M284.1,177.9v-24.7c-24.8-31.9-41.4-69.7-47.5-110c-1.8-11.9-16.7-16.5-24.4-7.3c-18.5,21.9-33.1,47.5-43,76
		C199.2,145.6,239.5,168.7,284.1,177.9L284.1,177.9z M382.6,87.2c-38.8,0-70.3,31.6-70.3,70.4v52.2c-91.8-5.4-169.6-62-204.8-142.1
		c-4.8-11-20.4-11.6-25.5-0.8c-14.6,30.8-22.9,65.3-22.9,101.7c0,62.2,30,120.3,74.8,163.4c11.6,11.2,22.9,20.4,34.2,28.8
		L41.6,392.5c-9.4,2.4-13.6,13.3-8.3,21.4c15.3,23.6,53.1,63.7,134.6,67.1c7,0.3,14.1-2.3,19.4-6.9l57.3-49.3h67.6
		c77.7,0,140.6-62.8,140.6-140.5V143.5L481,87.2H382.6z M382.6,171.7c-7.7,0-14.1-6.3-14.1-14.1s6.3-14.1,14.1-14.1
		c7.7,0,14.1,6.3,14.1,14.1S390.3,171.7,382.6,171.7z"/>
</g>
</svg>
